<?xml version="1.0" encoding="UTF-8"?>
<!DOCTYPE svg PUBLIC "-//W3C//DTD SVG 1.1//EN" "http://www.w3.org/Graphics/SVG/1.1/DTD/svg11.dtd">
<svg xmlns="http://www.w3.org/2000/svg" version="1.1" width="512px" height="512px" style="shape-rendering:geometricPrecision; text-rendering:geometricPrecision; image-rendering:optimizeQuality; fill-rule:evenodd; clip-rule:evenodd" xmlns:xlink="http://www.w3.org/1999/xlink">
<g><path style="opacity:0.942" fill="#000000" d="M 191.5,-0.5 C 205.167,-0.5 218.833,-0.5 232.5,-0.5C 301.774,9.03575 354.274,43.7024 390,103.5C 423.975,169.502 423.975,235.502 390,301.5C 380.756,317.749 369.589,332.583 356.5,346C 403.636,395.47 451.136,444.637 499,493.5C 504.121,500.431 503.288,506.431 496.5,511.5C 493.5,511.5 490.5,511.5 487.5,511.5C 438.561,461.059 389.728,410.392 341,359.5C 291.132,399.151 234.632,413.318 171.5,402C 102.098,385.905 52.9309,345.405 24,280.5C -2.13629,211.312 5.19705,145.979 46,84.5C 82.4982,35.8776 130.998,7.54428 191.5,-0.5 Z M 198.5,19.5 C 266.677,17.5102 321.177,43.5102 362,97.5C 406.667,167.5 406.667,237.5 362,307.5C 318.542,364.967 260.708,390.467 188.5,384C 121.37,372.844 73.2033,336.678 44,275.5C 19.204,212.997 25.204,153.664 62,97.5C 95.8921,51.4628 141.392,25.4628 198.5,19.5 Z"/></g>
</svg>
