<?xml version="1.0" encoding="UTF-8"?>
<!DOCTYPE svg PUBLIC "-//W3C//DTD SVG 1.1//EN" "http://www.w3.org/Graphics/SVG/1.1/DTD/svg11.dtd">
<svg xmlns="http://www.w3.org/2000/svg" version="1.1" width="512px" height="512px" style="shape-rendering:geometricPrecision; text-rendering:geometricPrecision; image-rendering:optimizeQuality; fill-rule:evenodd; clip-rule:evenodd" xmlns:xlink="http://www.w3.org/1999/xlink">
<g><path style="opacity:0.94" fill="#000000" d="M 233.5,-0.5 C 248.167,-0.5 262.833,-0.5 277.5,-0.5C 377.766,12.0408 449.266,64.0408 492,155.5C 502.296,180.684 508.796,206.684 511.5,233.5C 511.5,248.167 511.5,262.833 511.5,277.5C 501.439,365.349 458.772,432.182 383.5,478C 350.39,496.603 315.057,507.77 277.5,511.5C 262.833,511.5 248.167,511.5 233.5,511.5C 141.741,500.393 73.2413,454.726 28,374.5C 12.4884,343.811 2.98836,311.478 -0.5,277.5C -0.5,262.833 -0.5,248.167 -0.5,233.5C 12.0408,133.234 64.0408,61.734 155.5,19C 180.684,8.70393 206.684,2.20393 233.5,-0.5 Z M 242.5,18.5 C 335.413,17.5304 407.246,55.5304 458,132.5C 502.459,211.431 503.792,291.098 462,371.5C 448.704,394.145 432.371,414.478 413,432.5C 383.891,416.695 354.391,401.528 324.5,387C 320.61,384.404 317.777,380.904 316,376.5C 314.45,365.217 314.117,353.883 315,342.5C 327.685,326.135 337.519,308.135 344.5,288.5C 353.716,283.738 359.882,276.405 363,266.5C 364.586,250.879 364.919,235.213 364,219.5C 363.219,213.147 360.885,207.48 357,202.5C 368.896,107.063 327.063,64.5633 231.5,75C 204.053,77.4651 182.22,89.6318 166,111.5C 159.725,121.993 156.058,133.326 155,145.5C 154.667,164.5 154.333,183.5 154,202.5C 150.115,207.48 147.781,213.147 147,219.5C 146.333,232.833 146.333,246.167 147,259.5C 147.816,269.132 151.816,277.132 159,283.5C 165.144,304.453 174.478,323.786 187,341.5C 187.667,352.5 187.667,363.5 187,374.5C 186.108,377.952 184.442,380.952 182,383.5C 153.667,399.5 125.333,415.5 97,431.5C 27.6836,364.259 4.68359,283.592 28,189.5C 57.6752,99.8239 118.509,44.3239 210.5,23C 221.268,21.1562 231.935,19.6562 242.5,18.5 Z M 238.5,93.5 C 249.838,93.3335 261.172,93.5001 272.5,94C 289.058,95.1845 304.058,100.518 317.5,110C 327.987,119.139 334.154,130.639 336,144.5C 336.333,166.5 336.667,188.5 337,210.5C 340.098,212.928 342.431,215.928 344,219.5C 344.667,233.167 344.667,246.833 344,260.5C 341.073,267.093 336.073,271.093 329,272.5C 322.162,295.516 311.162,316.183 296,334.5C 295.079,350.546 295.412,366.546 297,382.5C 300.237,392.404 306.403,399.904 315.5,405C 342.322,418.244 368.989,431.744 395.5,445.5C 346.818,481.439 292.151,496.606 231.5,491C 187.928,486.202 148.594,470.868 113.5,445C 140.167,430 166.833,415 193.5,400C 200.734,393.368 205.234,385.201 207,375.5C 207.667,361.833 207.667,348.167 207,334.5C 192.043,315.917 181.877,294.917 176.5,271.5C 174.476,269.642 172.309,267.975 170,266.5C 168.561,264.725 167.561,262.725 167,260.5C 166.333,246.833 166.333,233.167 167,219.5C 168.569,215.928 170.902,212.928 174,210.5C 174.333,188.167 174.667,165.833 175,143.5C 178.833,122.001 191,107.501 211.5,100C 220.442,97.0132 229.442,94.8465 238.5,93.5 Z"/></g>
</svg>
