<?xml version="1.0" standalone="no"?>
<!DOCTYPE svg PUBLIC "-//W3C//DTD SVG 20010904//EN"
 "http://www.w3.org/TR/2001/REC-SVG-20010904/DTD/svg10.dtd">
<svg version="1.0" xmlns="http://www.w3.org/2000/svg"
 width="1300.000000pt" height="1300.000000pt" viewBox="0 0 1300.000000 1300.000000"
 preserveAspectRatio="xMidYMid meet">

<g transform="translate(0.000000,1300.000000) scale(0.100000,-0.100000)"
fill="#000000" stroke="none">
<path d="M5815 10000 c-602 -67 -1172 -301 -1640 -675 -130 -104 -379 -352
-485 -485 -591 -740 -817 -1710 -613 -2630 133 -602 437 -1144 886 -1577 185
-179 491 -411 502 -381 2 7 27 87 56 178 l52 164 -29 23 c-241 185 -387 319
-516 473 -333 396 -536 831 -625 1336 -26 149 -28 176 -28 449 0 323 10 419
71 665 252 1026 1066 1820 2099 2049 205 45 318 56 595 55 196 0 293 -5 373
-17 501 -77 939 -264 1327 -566 191 -148 435 -408 568 -603 36 -54 73 -100 81
-102 73 -22 411 -34 411 -15 0 16 -103 189 -181 304 -289 426 -705 794 -1158
1024 -314 160 -617 257 -976 313 -103 16 -189 21 -410 23 -154 2 -316 -1 -360
-5z"/>
<path d="M5937 8899 c-133 -13 -319 -54 -452 -99 -1053 -359 -1619 -1490
-1274 -2545 92 -280 250 -547 454 -763 129 -137 153 -128 220 82 27 87 43 151
38 162 -3 11 -29 44 -56 74 -102 115 -217 309 -286 483 -63 159 -111 414 -111
592 0 179 48 433 112 595 174 439 523 788 958 955 359 139 786 146 1154 18
162 -56 196 -76 653 -385 297 -201 547 -317 848 -392 156 -39 256 -55 442 -68
l172 -12 20 -86 c56 -241 76 -443 68 -705 -12 -407 -96 -757 -267 -1113 -380
-790 -1103 -1351 -1960 -1522 -80 -16 -198 -34 -264 -41 -151 -15 -535 -7
-671 15 -112 17 -327 65 -346 77 -8 5 19 102 99 354 61 191 112 348 114 350 2
1 53 -8 113 -21 445 -94 908 -35 1313 167 186 92 257 140 266 175 7 28 -21 76
-122 209 -49 65 -79 69 -153 22 -288 -184 -675 -279 -1015 -249 -128 12 -273
37 -285 50 -3 4 128 426 292 937 164 512 299 942 299 956 0 54 -18 59 -227 59
-145 0 -193 -3 -201 -13 -13 -15 -96 -272 -567 -1742 -179 -561 -355 -1108
-390 -1215 -199 -615 -378 -1189 -378 -1212 -1 -56 7 -58 223 -58 160 0 200 3
210 14 6 8 72 205 146 438 75 232 137 425 140 427 2 3 64 -9 137 -27 274 -65
453 -85 737 -85 507 1 956 109 1408 337 908 460 1525 1318 1684 2341 29 188
36 567 14 775 -15 135 -55 369 -71 411 -4 11 15 19 81 32 154 32 361 106 527
190 161 81 217 121 217 154 0 33 -125 247 -153 263 -25 14 -30 13 -70 -9 -385
-218 -666 -291 -1067 -278 -287 9 -518 62 -780 177 -129 57 -262 137 -515 310
-126 86 -258 173 -292 194 -321 192 -772 285 -1186 245z"/>
</g>
</svg>
